<svg xmlns="http://www.w3.org/2000/svg" viewBox="0 0 920 232" fill="none">
<path d="M250.584 177.336C239.061 177.336 229.64 173.988 222.321 167.292C215.002 160.596 211.343 151.954 211.343 141.365C211.343 129.686 215.703 120.655 224.423 114.271C233.299 107.886 245.834 104.694 262.029 104.694H286.087V98.621C286.087 89.9009 283.751 83.283 279.08 78.7672C274.564 74.0957 267.946 71.7599 259.226 71.7599C252.219 71.7599 245.756 73.2392 239.839 76.1979C234.078 79.0008 229.25 83.1272 225.357 88.5773L215.314 76.4314C220.608 69.7356 227.07 64.6748 234.7 61.2491C242.331 57.6676 250.817 55.8768 260.16 55.8768C274.797 55.8768 286.087 59.4583 294.028 66.6213C301.97 73.7843 305.941 84.0615 305.941 97.4532V152.343C305.941 158.416 306.875 165.968 308.744 175H291.459C290.058 171.419 289.046 165.968 288.423 158.65H287.956C283.595 164.723 278.223 169.394 271.839 172.664C265.454 175.779 258.369 177.336 250.584 177.336ZM253.62 161.686C259.537 161.686 264.987 160.596 269.97 158.416C274.953 156.08 278.846 152.966 281.649 149.073C284.608 145.18 286.087 140.898 286.087 136.227V118.942H261.328C251.518 118.942 243.966 120.889 238.671 124.781C233.377 128.674 230.73 134.202 230.73 141.365C230.73 147.594 232.754 152.577 236.803 156.314C241.007 159.895 246.613 161.686 253.62 161.686ZM336.696 87.643C336.696 77.6772 336.385 67.867 335.762 58.2126H353.981C354.448 63.9741 354.681 70.1249 354.681 76.665H355.148C358.418 70.4363 363.479 65.4534 370.331 61.7162C377.182 57.8233 384.579 55.8768 392.52 55.8768C407.625 55.8768 419.459 61.2491 428.024 71.9935C436.588 82.738 440.87 97.6089 440.87 116.606C440.87 128.908 438.846 139.652 434.797 148.84C430.749 157.871 424.987 164.878 417.513 169.861C410.194 174.844 401.63 177.336 391.82 177.336C383.722 177.336 376.637 175.779 370.564 172.664C364.491 169.55 360.053 165.19 357.251 159.584H356.55V231.525H336.696V87.643ZM388.783 162.153C398.749 162.153 406.613 158.027 412.374 149.774C418.136 141.365 421.017 130.076 421.017 115.906C421.017 101.735 418.214 90.8352 412.608 83.2051C407.002 75.575 399.138 71.7599 389.017 71.7599C379.518 71.7599 371.732 74.8743 365.659 81.1029C359.586 87.3316 356.55 95.2731 356.55 104.928V126.183C356.55 136.927 359.508 145.647 365.426 152.343C371.343 158.883 379.129 162.153 388.783 162.153ZM464.91 86.7087C464.91 73.4728 464.677 63.9741 464.21 58.2126H482.662C483.285 64.4413 483.596 71.2928 483.596 78.7672V81.1029H484.297C487.256 73.0057 492.005 66.777 498.545 62.4169C505.085 58.0569 512.793 55.8768 521.669 55.8768C524.16 55.8768 526.418 56.1104 528.443 56.5776V72.9278C526.418 72.4607 523.693 72.2271 520.268 72.2271C513.727 72.2271 507.732 74.2514 502.282 78.3C496.832 82.1929 492.55 87.5652 489.436 94.4167C486.321 101.268 484.764 108.743 484.764 116.84V175H464.91V86.7087ZM559.417 37.8916C555.057 37.8916 551.631 36.7237 549.14 34.388C546.648 32.0522 545.402 28.86 545.402 24.8114C545.402 20.7628 546.648 17.5706 549.14 15.2348C551.631 12.7434 555.057 11.4976 559.417 11.4976C563.777 11.4976 567.203 12.7434 569.694 15.2348C572.341 17.5706 573.665 20.7628 573.665 24.8114C573.665 28.86 572.341 32.0522 569.694 34.388C567.203 36.7237 563.777 37.8916 559.417 37.8916ZM549.607 58.2126H569.461V175H549.607V58.2126ZM653.108 177.336C641.585 177.336 631.541 174.922 622.977 170.095C614.568 165.112 608.028 158.027 603.356 148.84C598.841 139.652 596.583 128.908 596.583 116.606C596.583 104.305 598.841 93.5602 603.356 84.373C608.028 75.1857 614.568 68.1785 622.977 63.3512C631.541 58.3683 641.585 55.8768 653.108 55.8768C670.548 55.8768 684.329 61.3269 694.45 72.2271C704.728 83.1272 709.866 97.9203 709.866 116.606C709.866 135.292 704.728 150.085 694.45 160.986C684.329 171.886 670.548 177.336 653.108 177.336ZM653.108 162.153C664.631 162.153 673.662 158.105 680.202 150.007C686.743 141.91 690.013 130.777 690.013 116.606C690.013 102.436 686.743 91.3024 680.202 83.2051C673.662 75.1078 664.631 71.0592 653.108 71.0592C641.74 71.0592 632.787 75.1078 626.247 83.2051C619.707 91.3024 616.437 102.436 616.437 116.606C616.437 130.777 619.707 141.91 626.247 150.007C632.787 158.105 641.74 162.153 653.108 162.153ZM733.841 86.7087C733.841 73.4728 733.607 63.9741 733.14 58.2126H751.592C752.215 64.4413 752.527 71.2928 752.527 78.7672V81.1029H753.227C756.186 73.0057 760.935 66.777 767.475 62.4169C774.016 58.0569 781.724 55.8768 790.599 55.8768C793.091 55.8768 795.349 56.1104 797.373 56.5776V72.9278C795.349 72.4607 792.624 72.2271 789.198 72.2271C782.658 72.2271 776.663 74.2514 771.213 78.3C765.763 82.1929 761.48 87.5652 758.366 94.4167C755.252 101.268 753.695 108.743 753.695 116.84V175H733.841V86.7087ZM848.435 177.336C836.912 177.336 827.491 173.988 820.172 167.292C812.853 160.596 809.194 151.954 809.194 141.365C809.194 129.686 813.554 120.655 822.274 114.271C831.15 107.886 843.685 104.694 859.88 104.694H883.938V98.621C883.938 89.9009 881.602 83.283 876.931 78.7672C872.415 74.0957 865.797 71.7599 857.077 71.7599C850.07 71.7599 843.607 73.2392 837.69 76.1979C831.929 79.0008 827.102 83.1272 823.209 88.5773L813.165 76.4314C818.459 69.7356 824.921 64.6748 832.552 61.2491C840.182 57.6676 848.668 55.8768 858.011 55.8768C872.649 55.8768 883.938 59.4583 891.88 66.6213C899.821 73.7843 903.792 84.0615 903.792 97.4532V152.343C903.792 158.416 904.726 165.968 906.595 175H889.31C887.909 171.419 886.897 165.968 886.274 158.65H885.807C881.447 164.723 876.074 169.394 869.69 172.664C863.306 175.779 856.221 177.336 848.435 177.336ZM851.471 161.686C857.388 161.686 862.838 160.596 867.821 158.416C872.804 156.08 876.697 152.966 879.5 149.073C882.459 145.18 883.938 140.898 883.938 136.227V118.942H859.179C849.369 118.942 841.817 120.889 836.522 124.781C831.228 128.674 828.581 134.202 828.581 141.365C828.581 147.594 830.605 152.577 834.654 156.314C838.858 159.895 844.464 161.686 851.471 161.686Z" fill="black"/>
<path d="M58.811 178.765C47.7516 178.65 38.0458 175.654 29.6936 169.779C21.3415 163.904 14.8325 155.782 10.1669 145.414C5.50116 135.046 3.16832 123.122 3.16832 109.644C3.16832 96.2801 5.61636 84.5006 10.5125 74.3052C15.4086 64.0522 22.1191 56.0457 30.644 50.2856C39.2266 44.4679 48.99 41.559 59.9342 41.559C67.7104 41.559 74.5361 43.0278 80.4114 45.9655C86.2867 48.8455 91.298 52.8776 95.4453 58.0617C99.6502 63.2458 103.106 69.2651 105.813 76.1197H114.799L119.897 109.298L136.832 176H114.713L98.815 109.298C97.9509 105.035 96.6549 100.283 94.9269 95.0416C93.1989 89.7999 90.9236 84.7886 88.1012 80.0078C85.2787 75.2269 81.7074 71.2812 77.3873 68.1707C73.1249 65.0603 67.9696 63.505 61.9214 63.505C55.2973 63.505 49.4796 65.4923 44.4683 69.4667C39.457 73.3836 35.5689 78.8269 32.8041 85.7967C30.0392 92.7664 28.6568 100.773 28.6568 109.816C28.6568 118.687 29.9816 126.665 32.6313 133.75C35.3385 140.835 39.0826 146.422 43.8635 150.512C48.6444 154.544 54.2317 156.56 60.6254 156.56C66.4431 156.56 71.5408 154.976 75.9185 151.808C80.2962 148.639 84.0115 144.607 87.0643 139.711C90.1172 134.815 92.594 129.718 94.4949 124.418C96.4533 119.061 97.8933 114.252 98.815 109.989L113.071 43.287H135.104L119.897 109.989L114.799 143.599H106.591C103.826 150.454 100.255 156.56 95.8773 161.917C91.5572 167.216 86.3155 171.363 80.1522 174.358C74.0465 177.354 66.9327 178.822 58.811 178.765Z" fill="#6585FF"/>
</svg>